<svg width="168" height="56" viewBox="0 0 168 56" fill="none" xmlns="http://www.w3.org/2000/svg">
<path d="M6.03117 28.0712C6.03117 24.2734 7.45694 20.8022 9.80087 18.1587L6.46389 14.9312C3.30999 18.4106 1.3877 23.0195 1.3877 28.0712C1.3877 30.2552 1.75385 32.3562 2.4168 34.3187L6.76347 32.6883C6.28914 31.2323 6.03117 29.6822 6.03117 28.0712V28.0712Z" fill="white"/>
<path d="M21.0434 13.0879C22.6439 13.0879 24.1834 13.3425 25.6314 13.8048L27.2541 9.46168C25.3013 8.81118 23.2153 8.4541 21.0462 8.4541C15.7675 8.4541 10.9714 10.544 7.4375 13.9349L10.7717 17.1597C13.4596 14.638 17.074 13.0851 21.0462 13.0851L21.0434 13.0879Z" fill="white"/>
<path d="M28.5581 9.94629L26.9354 14.2894C32.2946 16.5786 36.0587 21.8933 36.0587 28.0689C36.0587 34.2445 32.2557 39.6117 26.855 41.8843L28.4527 46.2358C35.6315 43.3099 40.7022 36.2734 40.7022 28.0689C40.7022 19.8643 35.6787 12.8971 28.5581 9.94629Z" fill="white"/>
<path d="M21.0464 43.0523C14.8718 43.0523 9.55981 39.3126 7.25472 33.9868L2.90527 35.62C5.8761 42.6979 12.8885 47.686 21.0464 47.686C23.1768 47.686 25.2239 47.3428 27.1462 46.7144L25.5485 42.363C24.1255 42.8114 22.6137 43.0523 21.0437 43.0523H21.0464Z" fill="white"/>
<path d="M49.4396 20.8357C49.95 20.8357 50.391 20.6502 50.76 20.2821C51.1289 19.9139 51.3147 19.4738 51.3147 18.9645C51.3147 18.4552 51.1289 18.015 50.76 17.6469C50.391 17.2787 49.95 17.0933 49.4396 17.0933C48.9292 17.0933 48.4882 17.2787 48.1192 17.6469C47.7503 18.015 47.5645 18.4552 47.5645 18.9645C47.5645 19.4738 47.7503 19.9139 48.1192 20.2821C48.4882 20.6502 48.9292 20.8357 49.4396 20.8357Z" fill="white"/>
<path d="M49.4397 23.3574C49.0236 23.3574 48.6768 23.4903 48.405 23.7533C48.1304 24.019 47.9917 24.3678 47.9917 24.8024V37.4109C47.9917 37.8261 48.1304 38.1722 48.405 38.4462C48.6796 38.7202 49.0236 38.8559 49.4397 38.8559C49.8557 38.8559 50.2247 38.7202 50.491 38.4462C50.7545 38.1722 50.8876 37.8289 50.8876 37.4109V24.8024C50.8876 24.3678 50.7545 24.019 50.491 23.7533C50.2247 23.4903 49.8752 23.3574 49.4397 23.3574Z" fill="white"/>
<path d="M61.7615 36.0211H60.7962C60.1915 36.0211 59.6783 35.7665 59.2622 35.2571C58.8461 34.7478 58.6381 34.1139 58.6381 33.3582V26.3605H61.0514C61.448 26.3605 61.7698 26.2471 62.0167 26.0201C62.2635 25.7931 62.3856 25.5107 62.3856 25.1703C62.3856 24.7938 62.2635 24.4893 62.0167 24.2623C61.7698 24.0354 61.448 23.9219 61.0514 23.9219H58.6381V19.8417C58.6381 19.4265 58.5049 19.086 58.2414 18.8231C57.9751 18.5601 57.6339 18.4272 57.2179 18.4272C56.8018 18.4272 56.4606 18.5601 56.1971 18.8231C55.9308 19.0888 55.8004 19.4265 55.8004 19.8417V23.9219H54.4939C54.0972 23.9219 53.7755 24.0354 53.5286 24.2623C53.2817 24.4893 53.1597 24.7911 53.1597 25.1703C53.1597 25.5107 53.2817 25.7931 53.5286 26.0201C53.7755 26.2471 54.0972 26.3605 54.4939 26.3605H55.8004V33.3582C55.8004 34.3963 56.0168 35.3319 56.4523 36.1623C56.8878 36.9927 57.4897 37.6488 58.2553 38.1304C59.0209 38.612 59.8697 38.8529 60.7962 38.8529H61.3066C61.7975 38.8529 62.1997 38.72 62.5132 38.457C62.8266 38.1941 62.982 37.8536 62.982 37.4384C62.982 37.0232 62.8627 36.6827 62.6269 36.4197C62.3911 36.1568 62.1027 36.0239 61.7615 36.0239V36.0211Z" fill="white"/>
<path d="M76.3969 24.2765C75.2152 23.5872 73.8949 23.2412 72.4358 23.2412C70.9768 23.2412 69.6481 23.5872 68.447 24.2765C67.2459 24.9657 66.3028 25.9096 65.6232 27.1082C64.9408 28.3068 64.5996 29.6438 64.5996 31.1164C64.5996 32.589 64.9158 33.926 65.551 35.1246C66.1863 36.3231 67.0545 37.2643 68.164 37.9425C69.2708 38.6234 70.5052 38.9611 71.8699 38.9611C72.9684 38.9611 73.9892 38.7341 74.9351 38.2802C75.881 37.8262 76.6854 37.1951 77.3484 36.3813V37.4304C77.3484 37.8456 77.4843 38.1916 77.7589 38.4629C78.0335 38.7369 78.3775 38.8753 78.7963 38.8753C79.2152 38.8753 79.5591 38.7369 79.8337 38.4629C80.1084 38.1888 80.2443 37.8456 80.2443 37.4304V31.1136C80.2443 29.641 79.9003 28.304 79.2096 27.1054C78.5189 25.9069 77.5814 24.963 76.3997 24.2737L76.3969 24.2765ZM76.8102 33.8236C76.3747 34.6263 75.7728 35.2602 75.0072 35.7225C74.2416 36.1847 73.3845 36.4172 72.4386 36.4172C71.4927 36.4172 70.6356 36.1847 69.87 35.7225C69.1016 35.2602 68.4969 34.6263 68.0531 33.8236C67.6093 33.0208 67.3874 32.1184 67.3874 31.1192C67.3874 30.1199 67.6093 29.2119 68.0531 28.3981C68.4969 27.5871 69.1044 26.9477 69.87 26.4854C70.6356 26.0231 71.4927 25.7906 72.4386 25.7906C73.3845 25.7906 74.2416 26.0231 75.0072 26.4854C75.7728 26.9477 76.3747 27.5871 76.8102 28.3981C77.2457 29.2119 77.4621 30.1171 77.4621 31.1192C77.4621 32.1212 77.2429 33.0208 76.8102 33.8236Z" fill="white"/>
<path d="M102.356 29.3338V37.4359C102.356 37.8511 102.492 38.1971 102.767 38.4684C103.041 38.7424 103.385 38.8808 103.804 38.8808C104.223 38.8808 104.589 38.7424 104.855 38.4684C105.119 38.1944 105.252 37.8511 105.252 37.4359V29.3338C105.252 27.4072 104.745 25.9069 103.732 24.8301C102.72 23.7533 101.388 23.2163 99.7432 23.2163C98.703 23.2163 97.7544 23.4156 96.9055 23.8114C96.054 24.2073 95.3439 24.7554 94.7752 25.4557C94.2842 24.7387 93.6546 24.1851 92.8862 23.7976C92.1206 23.4101 91.2524 23.2163 90.2898 23.2163C89.4937 23.2163 88.7559 23.3547 88.0763 23.6288C87.3939 23.9028 86.8086 24.2848 86.3149 24.7747C86.2955 24.3595 86.154 24.0246 85.8877 23.7699C85.6242 23.5153 85.283 23.3879 84.8669 23.3879C84.4508 23.3879 84.1041 23.5208 83.8323 23.7838C83.5576 24.0495 83.4189 24.3983 83.4189 24.8329V37.4414C83.4189 37.8567 83.5576 38.2027 83.8323 38.4739C84.1069 38.748 84.4508 38.8864 84.8669 38.8864C85.283 38.8864 85.6519 38.748 85.9182 38.4739C86.1817 38.1999 86.3149 37.8567 86.3149 37.4414V29.4528C86.3149 28.3954 86.6311 27.5262 87.2663 26.8453C87.9015 26.1643 88.7198 25.8266 89.7212 25.8266C90.7226 25.8266 91.4576 26.1228 92.0346 26.7179C92.6116 27.3131 92.9001 28.1878 92.9001 29.3393V37.4414C92.9001 37.8567 93.036 38.2027 93.3106 38.4739C93.5852 38.748 93.9292 38.8864 94.3453 38.8864C94.7613 38.8864 95.1303 38.748 95.3966 38.4739C95.6601 38.1999 95.7932 37.8567 95.7932 37.4414V29.4528C95.7932 28.3954 96.1094 27.5262 96.7447 26.8453C97.3799 26.1643 98.1871 25.8266 99.1718 25.8266C100.157 25.8266 100.908 26.1228 101.485 26.7179C102.062 27.3131 102.351 28.1878 102.351 29.3393L102.356 29.3338Z" fill="white"/>
<path d="M121.352 37.239C121.654 37.0121 121.807 36.7297 121.807 36.3892C121.807 36.0322 121.638 35.7083 121.297 35.426C121.088 35.2377 120.806 35.1436 120.445 35.1436C120.084 35.1436 119.774 35.2488 119.507 35.4536C119.111 35.7554 118.603 36.01 117.987 36.2176C117.371 36.4252 116.781 36.5304 116.212 36.5304C114.772 36.5304 113.557 36.1235 112.564 35.3125C111.571 34.5014 110.969 33.4329 110.761 32.1098H121.549C121.929 32.1098 122.24 31.9908 122.487 31.7555C122.733 31.5202 122.855 31.2212 122.855 30.8642C122.855 29.3722 122.573 28.049 122.004 26.8975C121.435 25.746 120.622 24.8491 119.563 24.2069C118.503 23.5647 117.244 23.2437 115.788 23.2437C114.331 23.2437 112.992 23.5786 111.827 24.2485C110.661 24.9183 109.754 25.8539 109.1 27.0525C108.448 28.2511 108.121 29.6075 108.121 31.1188C108.121 32.6302 108.465 33.981 109.158 35.1713C109.849 36.3616 110.808 37.2916 112.04 37.9615C113.272 38.6314 114.661 38.9663 116.215 38.9663C117.086 38.9663 117.998 38.8058 118.955 38.4847C119.912 38.1636 120.711 37.7484 121.355 37.239H121.352ZM112.423 26.8145C113.283 26.0588 114.406 25.6796 115.788 25.6796C117.036 25.6796 118.048 26.0588 118.825 26.8145C119.602 27.5702 120.073 28.5805 120.245 29.8455H110.792C111.019 28.5805 111.563 27.5702 112.426 26.8145H112.423Z" fill="white"/>
<path d="M131.573 38.853C132.064 38.853 132.466 38.7202 132.78 38.4572C133.093 38.1942 133.249 37.8538 133.249 37.4385C133.249 37.0233 133.129 36.6829 132.894 36.4199C132.658 36.1569 132.369 36.0241 132.028 36.0241H131.063C130.458 36.0241 129.945 35.7694 129.529 35.2601C129.113 34.7507 128.905 34.1169 128.905 33.3612V26.3635H131.318C131.715 26.3635 132.036 26.25 132.283 26.023C132.53 25.796 132.652 25.5137 132.652 25.1732C132.652 24.7967 132.53 24.4923 132.283 24.2653C132.036 24.0383 131.715 23.9248 131.318 23.9248H128.905V19.8447C128.905 19.4295 128.772 19.089 128.508 18.826C128.242 18.563 127.901 18.4302 127.484 18.4302C127.068 18.4302 126.727 18.563 126.464 18.826C126.197 19.0917 126.067 19.4295 126.067 19.8447V23.9248H124.761C124.364 23.9248 124.042 24.0383 123.795 24.2653C123.548 24.4923 123.426 24.794 123.426 25.1732C123.426 25.5137 123.548 25.796 123.795 26.023C124.042 26.25 124.364 26.3635 124.761 26.3635H126.067V33.3612C126.067 34.3992 126.283 35.3348 126.719 36.1652C127.154 36.9957 127.756 37.6517 128.522 38.1333C129.287 38.615 130.136 38.8558 131.063 38.8558H131.573V38.853Z" fill="white"/>
<path d="M145.626 23.6395C145.057 23.3378 144.272 23.1855 143.268 23.1855C142.322 23.1855 141.432 23.3738 140.599 23.753C139.767 24.1322 139.066 24.6499 138.5 25.3114V24.7744C138.5 23.8305 138.025 23.3572 137.079 23.3572C136.624 23.3572 136.275 23.479 136.028 23.7253C135.781 23.9717 135.659 24.3205 135.659 24.7744V37.4384C135.659 37.9117 135.781 38.266 136.028 38.5013C136.275 38.7366 136.624 38.8556 137.079 38.8556C137.534 38.8556 137.909 38.7338 138.145 38.4875C138.38 38.2411 138.5 37.8923 138.5 37.4384V29.1646C138.5 28.1072 138.916 27.2657 139.748 26.6429C140.58 26.0201 141.678 25.7073 143.04 25.7073C143.512 25.7073 144.128 25.7737 144.885 25.9066C145.074 25.9453 145.215 25.9619 145.309 25.9619C145.895 25.9619 146.275 25.6602 146.447 25.054C146.466 24.9986 146.475 24.9018 146.475 24.7717C146.475 24.3177 146.192 23.9412 145.623 23.6395H145.626Z" fill="white"/>
<path d="M151.106 38.4433C151.369 38.1692 151.502 37.826 151.502 37.408V24.7994C151.502 24.3648 151.369 24.0161 151.106 23.7503C150.839 23.4874 150.49 23.3545 150.054 23.3545C149.619 23.3545 149.292 23.4874 149.02 23.7503C148.745 24.0161 148.606 24.3648 148.606 24.7994V37.408C148.606 37.8232 148.745 38.1692 149.02 38.4433C149.294 38.7173 149.638 38.8529 150.054 38.8529C150.471 38.8529 150.839 38.7173 151.106 38.4433Z" fill="white"/>
<path d="M150.054 17.0957C149.544 17.0957 149.103 17.2812 148.734 17.6493C148.365 18.0175 148.179 18.4576 148.179 18.9669C148.179 19.4762 148.365 19.9164 148.734 20.2845C149.103 20.6527 149.544 20.8381 150.054 20.8381C150.565 20.8381 151.006 20.6527 151.375 20.2845C151.744 19.9164 151.929 19.4762 151.929 18.9669C151.929 18.4576 151.744 18.0175 151.375 17.6493C151.006 17.2812 150.565 17.0957 150.054 17.0957Z" fill="white"/>
<path d="M159.397 31.1193L154.997 36.6167C154.731 36.9378 154.601 37.2865 154.601 37.6658C154.601 38.0062 154.709 38.2886 154.928 38.5156C155.144 38.7425 155.444 38.856 155.821 38.856C156.218 38.856 156.559 38.7038 156.842 38.4021L161.13 33.0182L165.646 38.4021C165.874 38.7038 166.215 38.856 166.667 38.856C167.044 38.856 167.352 38.7425 167.591 38.5156C167.826 38.2886 167.946 38.0062 167.946 37.6658C167.946 37.2893 167.813 36.9571 167.549 36.6748L163.036 31.2909L167.324 25.7104C167.588 25.37 167.721 24.9935 167.721 24.5783C167.721 24.2378 167.613 23.95 167.394 23.7147C167.175 23.4794 166.878 23.3604 166.5 23.3604C166.046 23.3604 165.696 23.5209 165.449 23.842L161.275 29.3948L156.617 23.842C156.351 23.5209 155.993 23.3604 155.538 23.3604C155.141 23.3604 154.834 23.4738 154.614 23.7008C154.395 23.9278 154.287 24.2018 154.287 24.5229C154.287 24.9022 154.429 25.2593 154.712 25.5997L159.397 31.1248V31.1193Z" fill="white"/>
<path d="M50.7134 41.9531C50.3251 41.9531 49.9645 42.0168 49.6371 42.1469C49.3071 42.277 49.0075 42.4708 48.7384 42.731C48.4583 43.0022 48.2502 43.3067 48.1115 43.6417C47.9756 43.9766 47.9062 44.3475 47.9062 44.7544C47.9062 45.2222 48.0089 45.6513 48.2114 46.0443C48.4166 46.4346 48.7107 46.764 49.099 47.0325C49.332 47.1931 49.5817 47.3121 49.8452 47.3979C50.1115 47.481 50.3833 47.5225 50.6663 47.5225C50.9908 47.5225 51.3043 47.4727 51.6066 47.3758C51.909 47.2789 52.1947 47.135 52.4582 46.944V46.108C52.2196 46.3848 51.9533 46.5952 51.6649 46.7336C51.3736 46.8748 51.0601 46.944 50.7217 46.944C50.3611 46.944 50.0255 46.8637 49.7148 46.7004C49.4041 46.5371 49.1434 46.3045 48.9298 46.0028C48.8078 45.8284 48.719 45.6374 48.658 45.4298C48.5969 45.2222 48.5664 44.9952 48.5664 44.7489C48.5664 44.4361 48.6164 44.1482 48.719 43.888C48.8216 43.6278 48.9742 43.3953 49.1767 43.1849C49.3736 42.9829 49.6039 42.8251 49.8729 42.7116C50.1392 42.5981 50.4138 42.5427 50.694 42.5427C51.0435 42.5427 51.3597 42.6092 51.6482 42.7393C51.9367 42.8721 52.2058 43.0742 52.461 43.3482V42.5261C52.1808 42.3296 51.8951 42.1856 51.6094 42.0943C51.3209 42.003 51.0241 41.9559 50.7162 41.9559L50.7134 41.9531Z" fill="white"/>
<path d="M55.566 44.3808L54.1763 42.0806H53.4468L55.247 44.9566V47.3814H55.8767V44.9566L57.6742 42.0806H56.9474L55.566 44.3808Z" fill="white"/>
<path d="M61.0625 44.5717C61.3177 44.4969 61.5146 44.3641 61.6477 44.1758C61.7837 43.9876 61.8502 43.7523 61.8502 43.4727C61.8502 43.2375 61.8031 43.0243 61.7115 42.8278C61.6172 42.6312 61.4869 42.4707 61.3177 42.3434C61.1845 42.2465 61.0264 42.1773 60.8405 42.1385C60.6547 42.097 60.369 42.0776 59.9779 42.0776H58.8711V47.3785H59.9779C60.4966 47.3785 60.8683 47.348 61.0874 47.2872C61.3066 47.2263 61.4924 47.1238 61.6422 46.9771C61.7809 46.8387 61.8891 46.6754 61.964 46.4816C62.0416 46.2879 62.0805 46.0858 62.0805 45.8727C62.0805 45.5184 61.9889 45.2249 61.8059 44.9924C61.6228 44.7599 61.3759 44.6187 61.0597 44.5717H61.0625ZM59.4869 42.6285H59.9779C60.455 42.6285 60.7768 42.6977 60.9487 42.8333C61.1179 42.969 61.2039 43.207 61.2039 43.5475C61.2039 43.8575 61.1124 44.0762 60.9293 44.2063C60.7462 44.3364 60.43 44.4028 59.9779 44.4028H59.4869V42.6285V42.6285ZM61.3177 46.3322C61.2539 46.4706 61.1679 46.5785 61.0597 46.6533C60.9709 46.7197 60.8516 46.764 60.7019 46.7917C60.5548 46.8193 60.3107 46.8304 59.9751 46.8304H59.4841V44.8983H60.1582C60.394 44.8983 60.5659 44.9094 60.6769 44.9315C60.7878 44.9537 60.8849 44.9897 60.9709 45.0395C61.1124 45.1197 61.2233 45.2305 61.2982 45.3716C61.3731 45.5128 61.412 45.6817 61.412 45.8754C61.412 46.0415 61.3815 46.1938 61.3177 46.3322V46.3322Z" fill="white"/>
<path d="M63.5879 47.3814H66.3867V46.7946H64.2176V44.7628H66.3867V44.176H64.2176V42.6563H66.3867V42.0806H63.5879V47.3814Z" fill="white"/>
<path d="M69.531 44.8542C69.9998 44.8542 70.3549 44.7407 70.599 44.5165C70.8403 44.2895 70.9623 43.9601 70.9623 43.5255C70.9623 43.2736 70.918 43.0466 70.832 42.839C70.746 42.6342 70.6239 42.4681 70.4658 42.3463C70.341 42.2494 70.194 42.1802 70.0275 42.1415C69.8611 42.0999 69.6004 42.0806 69.2453 42.0806H67.9971V47.3814H68.6129V44.8542H68.7044L70.6406 47.3814H71.4422L69.4145 44.8542H69.5282H69.531ZM68.6156 44.3864V42.612H69.0983C69.581 42.612 69.911 42.6812 70.0803 42.8169C70.2522 42.9525 70.3382 43.1906 70.3382 43.531C70.3382 43.8466 70.255 44.068 70.0886 44.1954C69.9221 44.3227 69.5921 44.3864 69.0983 44.3864H68.6156V44.3864Z" fill="white"/>
<path d="M74.4533 44.4392L73.696 44.107C73.4519 44.0018 73.2716 43.88 73.1551 43.7416C73.0386 43.6032 72.9804 43.4399 72.9804 43.2517C72.9804 43.0275 73.0553 42.842 73.2078 42.6981C73.3604 42.5541 73.5546 42.4822 73.7904 42.4822C73.9762 42.4822 74.1426 42.532 74.2897 42.6316C74.4367 42.7313 74.5698 42.8835 74.6891 43.0911L75.2106 42.759C75.0802 42.496 74.8971 42.2967 74.6641 42.1611C74.4311 42.0254 74.1537 41.959 73.8347 41.959C73.3992 41.959 73.0414 42.0808 72.7612 42.3271C72.4811 42.5735 72.3396 42.8835 72.3396 43.26C72.3396 43.5838 72.4256 43.8607 72.6004 44.0932C72.7723 44.3257 73.0359 44.5139 73.3881 44.6606L74.0345 44.9347C74.3091 45.0565 74.5171 45.2032 74.653 45.3776C74.789 45.5519 74.8583 45.7595 74.8583 45.9948C74.8583 46.2883 74.7612 46.5235 74.5643 46.7062C74.3673 46.8889 74.1121 46.9803 73.7959 46.9803C73.5268 46.9803 73.3049 46.8972 73.1274 46.7339C72.9499 46.5678 72.8223 46.3242 72.7446 46.0031L72.1704 46.2855C72.2703 46.6786 72.4617 46.983 72.7446 47.1962C73.0275 47.4093 73.3771 47.5173 73.7959 47.5173C74.3091 47.5173 74.7196 47.3678 75.0303 47.0689C75.341 46.7699 75.4963 46.3796 75.4963 45.8897C75.4963 45.5575 75.4075 45.2668 75.2328 45.0232C75.058 44.7797 74.7973 44.5831 74.4505 44.4364L74.4533 44.4392Z" fill="white"/>
<path d="M76.8804 47.3814H79.682V46.7946H77.5128V44.7628H79.682V44.176H77.5128V42.6563H79.682V42.0806H76.8804V47.3814Z" fill="white"/>
<path d="M83.8609 41.9531C83.4725 41.9531 83.1119 42.0168 82.7846 42.1469C82.4545 42.277 82.1549 42.4708 81.8859 42.731C81.6057 43.0022 81.3977 43.3067 81.259 43.6417C81.1231 43.9766 81.0537 44.3475 81.0537 44.7544C81.0537 45.2222 81.1563 45.6513 81.3588 46.0443C81.5641 46.4346 81.8581 46.764 82.2465 47.0325C82.4795 47.1931 82.7291 47.3121 82.9926 47.3979C83.2589 47.481 83.5336 47.5225 83.8137 47.5225C84.1383 47.5225 84.4517 47.4727 84.7541 47.3758C85.0564 47.2789 85.3421 47.135 85.6056 46.944V46.108C85.3671 46.3848 85.1008 46.5952 84.8123 46.7336C84.5211 46.8748 84.2076 46.944 83.8692 46.944C83.5086 46.944 83.173 46.8637 82.8623 46.7004C82.5516 46.5371 82.2909 46.3045 82.0773 46.0028C81.9552 45.8284 81.8665 45.6374 81.8054 45.4298C81.7444 45.2222 81.7139 44.9952 81.7139 44.7489C81.7139 44.4361 81.7638 44.1482 81.8665 43.888C81.9691 43.6278 82.1217 43.3953 82.3241 43.1849C82.5211 42.9829 82.7513 42.8251 83.0204 42.7116C83.2867 42.5981 83.5613 42.5427 83.8415 42.5427C84.191 42.5427 84.5072 42.6092 84.7957 42.7393C85.0842 42.8721 85.3532 43.0742 85.6084 43.3482V42.5261C85.3283 42.3296 85.0425 42.1856 84.7568 42.0943C84.4683 42.003 84.1715 41.9559 83.8636 41.9559L83.8609 41.9531Z" fill="white"/>
<path d="M90.6777 45.3803C90.6777 45.9173 90.5639 46.3103 90.3337 46.5595C90.1062 46.8114 89.7484 46.9359 89.2574 46.9359C88.7665 46.9359 88.4114 46.8114 88.1812 46.5595C87.9509 46.3076 87.8372 45.9145 87.8372 45.3803V42.0835H87.1992V45.3803C87.1992 46.0972 87.3712 46.6342 87.7124 46.9885C88.0536 47.3456 88.5695 47.5228 89.2574 47.5228C89.9454 47.5228 90.4613 47.3456 90.8053 46.9885C91.1464 46.6314 91.3184 46.0972 91.3184 45.3803V42.0835H90.6777V45.3803Z" fill="white"/>
<path d="M94.6497 44.8542C95.1185 44.8542 95.4735 44.7407 95.7176 44.5165C95.959 44.2895 96.081 43.9601 96.081 43.5255C96.081 43.2736 96.0366 43.0466 95.9506 42.839C95.8646 42.6342 95.7426 42.4681 95.5845 42.3463C95.4596 42.2494 95.3126 42.1802 95.1462 42.1415C94.9798 42.0999 94.719 42.0806 94.364 42.0806H93.1157V47.3814H93.7315V44.8542H93.8231L95.7592 47.3814H96.5609L94.5332 44.8542H94.6469H94.6497ZM93.7343 44.3864V42.612H94.217C94.6996 42.612 95.0297 42.6812 95.1989 42.8169C95.3709 42.9525 95.4569 43.1906 95.4569 43.531C95.4569 43.8466 95.3737 44.068 95.2072 44.1954C95.0408 44.3227 94.7107 44.3864 94.217 44.3864H93.7343V44.3864Z" fill="white"/>
<path d="M98.2761 42.0806H97.6445V47.3814H98.2761V42.0806Z" fill="white"/>
<path d="M99.5312 42.6812H101.032V47.3814H101.67V42.6812H103.165V42.0806H99.5312V42.6812Z" fill="white"/>
<path d="M105.899 44.3808L104.509 42.0806H103.78L105.577 44.9566V47.3814H106.21V44.9566L108.004 42.0806H107.28L105.899 44.3808Z" fill="white"/>
<path d="M114.387 42.3465C114.251 42.2523 114.092 42.1859 113.907 42.1444C113.724 42.1029 113.435 42.0835 113.047 42.0835H111.932V47.3844H112.547V45.0066H113.044C113.435 45.0066 113.724 44.9872 113.907 44.9457C114.09 44.9042 114.248 44.835 114.384 44.7381C114.553 44.6163 114.686 44.453 114.78 44.2426C114.878 44.0322 114.925 43.7997 114.925 43.545C114.925 43.2904 114.878 43.0551 114.78 42.8475C114.686 42.6371 114.553 42.471 114.384 42.352L114.387 42.3465ZM113.965 44.2426C113.779 44.3699 113.413 44.4336 112.872 44.4336H112.553V42.6593H112.872C113.405 42.6593 113.765 42.7285 113.959 42.8669C114.154 43.0053 114.248 43.2433 114.248 43.581C114.248 43.8966 114.154 44.118 113.968 44.2454L113.965 44.2426Z" fill="white"/>
<path d="M116.252 47.3814H119.051V46.7946H116.882V44.7628H119.051V44.176H116.882V42.6563H119.051V42.0806H116.252V47.3814Z" fill="white"/>
<path d="M122.195 44.8542C122.664 44.8542 123.019 44.7407 123.263 44.5165C123.504 44.2895 123.626 43.9601 123.626 43.5255C123.626 43.2736 123.582 43.0466 123.496 42.839C123.41 42.6342 123.288 42.4681 123.13 42.3463C123.005 42.2494 122.858 42.1802 122.692 42.1415C122.525 42.0999 122.264 42.0806 121.909 42.0806H120.661V47.3814H121.277V44.8542H121.368L123.305 47.3814H124.106L122.079 44.8542H122.192H122.195ZM121.28 44.3864V42.612H121.762C122.245 42.612 122.575 42.6812 122.744 42.8169C122.916 42.9525 123.002 43.1906 123.002 43.531C123.002 43.8466 122.919 44.068 122.753 44.1954C122.586 44.3227 122.256 44.3864 121.762 44.3864H121.28V44.3864Z" fill="white"/>
<path d="M125.183 47.3814H125.813V44.7628H127.982V44.176H125.813V42.6563H127.982V42.0806H125.183V47.3814Z" fill="white"/>
<path d="M134.102 42.7697C133.836 42.5123 133.528 42.313 133.178 42.1718C132.829 42.0306 132.465 41.9614 132.088 41.9614C131.711 41.9614 131.35 42.0306 131.004 42.1718C130.654 42.313 130.349 42.5123 130.083 42.7697C129.811 43.0327 129.606 43.3316 129.464 43.6693C129.323 44.0043 129.25 44.3641 129.25 44.7433C129.25 45.1226 129.323 45.4769 129.464 45.8118C129.606 46.1468 129.811 46.4457 130.083 46.7087C130.352 46.9689 130.66 47.1709 131.006 47.3121C131.353 47.4533 131.714 47.5225 132.088 47.5225C132.463 47.5225 132.826 47.4505 133.176 47.3121C133.525 47.1709 133.836 46.9689 134.102 46.7087C134.371 46.4485 134.576 46.1495 134.715 45.8146C134.854 45.4796 134.926 45.1226 134.926 44.7433C134.926 44.3641 134.856 44.0043 134.715 43.6666C134.574 43.3316 134.371 43.0327 134.102 42.7697V42.7697ZM134.102 45.5793C133.994 45.8423 133.836 46.0776 133.625 46.2852C133.414 46.4955 133.178 46.6561 132.915 46.764C132.651 46.8748 132.377 46.9301 132.085 46.9301C131.794 46.9301 131.517 46.8748 131.256 46.7668C130.995 46.6588 130.759 46.4983 130.546 46.2852C130.335 46.072 130.177 45.8367 130.069 45.5765C129.961 45.3163 129.908 45.0368 129.908 44.7433C129.908 44.4499 129.963 44.1648 130.072 43.8991C130.18 43.6333 130.338 43.3953 130.549 43.1849C130.751 42.9773 130.987 42.8195 131.25 42.7116C131.514 42.6036 131.794 42.5483 132.088 42.5483C132.382 42.5483 132.66 42.6036 132.92 42.7116C133.181 42.8195 133.42 42.9773 133.628 43.1849C133.833 43.3898 133.991 43.6278 134.102 43.8935C134.213 44.162 134.268 44.4444 134.268 44.7406C134.268 45.0368 134.213 45.3136 134.105 45.5765L134.102 45.5793Z" fill="white"/>
<path d="M138.027 44.8542C138.496 44.8542 138.851 44.7407 139.095 44.5165C139.336 44.2895 139.458 43.9601 139.458 43.5255C139.458 43.2736 139.414 43.0466 139.328 42.839C139.242 42.6342 139.12 42.4681 138.962 42.3463C138.837 42.2494 138.69 42.1802 138.524 42.1415C138.357 42.0999 138.096 42.0806 137.741 42.0806H136.493V47.3814H137.109V44.8542H137.2L139.137 47.3814H139.938L137.911 44.8542H138.024H138.027ZM137.112 44.3864V42.612H137.594C138.077 42.612 138.407 42.6812 138.576 42.8169C138.748 42.9525 138.834 43.1906 138.834 43.531C138.834 43.8466 138.751 44.068 138.585 44.1954C138.418 44.3227 138.088 44.3864 137.594 44.3864H137.112V44.3864Z" fill="white"/>
<path d="M143.488 46.2547L141.63 41.8701L140.554 47.3814H141.17L141.838 43.7801L143.488 47.5862L145.131 43.7801L145.807 47.3814H146.423L145.347 41.8701L143.488 46.2547Z" fill="white"/>
<path d="M147.054 47.3814H147.739L148.427 45.7565H150.502L151.19 47.3814H151.875L149.459 41.8701L147.051 47.3814H147.054ZM148.619 45.2167L149.465 43.2652L150.311 45.2167H148.621H148.619Z" fill="white"/>
<path d="M156.854 46.1053L152.968 41.8701V47.3814H153.57V43.3981L157.456 47.5862V42.0805H156.854V46.1053Z" fill="white"/>
<path d="M161.835 41.9531C161.447 41.9531 161.086 42.0168 160.759 42.1469C160.429 42.277 160.129 42.4708 159.86 42.731C159.58 43.0022 159.372 43.3067 159.233 43.6417C159.097 43.9766 159.028 44.3475 159.028 44.7544C159.028 45.2222 159.13 45.6513 159.333 46.0443C159.538 46.4346 159.832 46.764 160.221 47.0325C160.454 47.1931 160.703 47.3121 160.967 47.3979C161.233 47.481 161.508 47.5225 161.788 47.5225C162.112 47.5225 162.426 47.4727 162.728 47.3758C163.031 47.2789 163.316 47.135 163.58 46.944V46.108C163.341 46.3848 163.075 46.5952 162.786 46.7336C162.495 46.8748 162.182 46.944 161.843 46.944C161.483 46.944 161.147 46.8637 160.836 46.7004C160.526 46.5371 160.265 46.3045 160.051 46.0028C159.929 45.8284 159.841 45.6374 159.78 45.4298C159.719 45.2222 159.688 44.9952 159.688 44.7489C159.688 44.4361 159.738 44.1482 159.841 43.888C159.943 43.6278 160.096 43.3953 160.298 43.1849C160.495 42.9829 160.725 42.8251 160.995 42.7116C161.261 42.5981 161.535 42.5427 161.816 42.5427C162.165 42.5427 162.481 42.6092 162.77 42.7393C163.058 42.8721 163.327 43.0742 163.583 43.3482V42.5261C163.302 42.3296 163.017 42.1856 162.731 42.0943C162.442 42.003 162.146 41.9559 161.838 41.9559L161.835 41.9531Z" fill="white"/>
<path d="M167.999 42.6563V42.0806H165.197V47.3814H167.999V46.7946H165.83V44.7628H167.999V44.176H165.83V42.6563H167.999Z" fill="white"/>
</svg>
