<svg width="149" height="45" viewBox="0 0 149 45" fill="none" xmlns="http://www.w3.org/2000/svg">
<path d="M26.6039 32.8022C25.9422 28.2508 26.553 23.9675 29.2505 20.235C29.2505 16.43 29.2505 12.6251 29.2505 8.82014C29.2505 7.84172 28.6979 7.29091 27.709 7.29091C25.4987 7.28366 23.2884 7.29091 21.0708 7.29091C19.9147 7.29091 19.4567 7.77649 19.4567 8.95784C19.4567 12.6903 19.4421 16.43 19.4712 20.1625C19.4785 20.8438 19.2822 21.0612 18.5915 21.054C15.9376 21.0177 13.2838 21.0105 10.6299 21.054C9.88103 21.0685 9.72107 20.8076 9.72834 20.1118C9.75742 16.3503 9.74288 12.5889 9.74288 8.82738C9.74288 7.81273 9.22666 7.29091 8.23055 7.29091C6.33287 7.29091 4.42792 7.29815 2.53024 7.29091C1.62866 7.28366 0.712539 7.18219 0 7.91419C0 19.9523 0 31.9905 0 44.0214C0.618019 44.594 1.36691 44.6084 2.15943 44.6012C4.18799 44.565 6.21654 44.594 8.25237 44.5867C9.32118 44.5867 9.74288 44.1519 9.74288 43.072C9.74288 39.18 9.75742 35.2881 9.72834 31.3962C9.72107 30.6714 9.88103 30.4033 10.6663 30.4178C13.291 30.4613 15.9231 30.454 18.5478 30.4178C19.2531 30.4105 19.4858 30.5845 19.4785 31.331C19.4421 35.2736 19.4567 39.2163 19.4567 43.1589C19.4567 44.1301 19.9075 44.5795 20.8818 44.5867C23.2011 44.594 25.5133 44.594 27.8327 44.5867C28.7706 44.5867 29.2505 44.0939 29.2505 43.1372C29.2505 41.8906 29.2505 40.6368 29.2505 39.3902C27.869 37.6146 26.982 35.4113 26.6039 32.8022Z" fill="#1F51FF"/>
<path d="M43.523 32.6707C41.7271 32.6707 39.9312 32.678 38.1353 32.6707C37.3356 32.6707 37.2483 32.7939 37.5101 33.5187C38.0263 34.9537 39.0878 35.8017 40.4838 36.28C42.8832 37.099 45.3044 36.9323 47.7255 36.4394C48.5108 36.28 49.2815 36.0191 50.0377 35.7364C50.5321 35.548 50.8084 35.6277 51.0192 36.1205C51.8699 38.1281 53.0696 39.9038 54.6619 41.404C55.1708 41.8823 54.8437 42.078 54.4074 42.2954C52.168 43.4043 49.7977 44.0566 47.3329 44.3972C43.872 44.8756 40.4256 44.9118 37.052 43.8609C31.5916 42.1577 28.4434 38.4325 27.6218 32.8084C26.9092 27.9091 27.6727 23.3214 30.9227 19.4005C33.3948 16.4218 36.6376 14.7911 40.5056 14.4722C43.7339 14.204 46.8676 14.5736 49.6741 16.3348C53.375 18.654 55.309 22.1546 55.9997 26.3509C56.2905 28.1338 56.2542 29.9674 56.3778 31.772C56.4287 32.4895 56.0942 32.7359 55.4035 32.7287C54.0221 32.7215 54.0221 32.7432 53.7312 31.3952C53.6949 31.2212 53.6512 31.04 53.6003 30.8661C53.2223 29.518 52.5243 29.0325 51.3609 29.3006C49.9504 29.6268 49.3178 30.4892 49.6232 31.83C49.7832 32.533 49.6305 32.7577 48.8961 32.7359C47.1002 32.6925 45.3044 32.7215 43.5085 32.7215C43.523 32.6925 43.523 32.678 43.523 32.6707ZM42.1706 26.3944C43.5448 26.3944 44.9263 26.3871 46.3005 26.4016C46.8749 26.4089 47.1221 26.2277 46.9548 25.6116C46.4095 23.6041 44.5337 22.227 42.2652 22.2125C39.8803 22.198 38.0481 23.4808 37.4592 25.5464C37.2847 26.1697 37.4519 26.4161 38.1135 26.4016C39.4659 26.3799 40.8183 26.3944 42.1706 26.3944Z" fill="#1F51FF"/>
<path d="M66.3095 24.8735C66.3095 30.1642 66.3095 35.4549 66.3095 40.7383C66.3095 41.8037 66.3095 41.782 65.2625 41.6153C62.3469 41.1587 59.8094 39.9338 57.7227 37.8538C57.4318 37.5639 57.221 37.0566 57.221 36.6507C57.1919 27.4174 57.1992 18.1913 57.1992 8.9579C57.1992 7.99398 57.5845 7.60986 58.5515 7.60986C60.711 7.60986 62.8704 7.60986 65.0298 7.60986C66.0114 7.60986 66.3095 7.91426 66.3095 8.92167C66.3095 14.2414 66.3095 19.561 66.3095 24.8735Z" fill="#1F51FF"/>
<path d="M69.0001 24.9011C69.0001 19.6104 69.0001 14.3197 69.0001 9.02899C69.0001 7.90562 69.291 7.61572 70.4325 7.61572C72.5628 7.61572 74.7005 7.61572 76.8308 7.61572C77.6815 7.61572 78.1686 8.10131 78.1686 8.94927C78.1686 18.1319 78.1759 27.3073 78.1468 36.4899C78.1468 36.903 77.9432 37.4176 77.6524 37.7147C75.4494 40.0122 72.6937 41.2515 69.5673 41.7299C69.131 41.7951 68.9929 41.6284 69.0001 41.237C69.0001 41.0848 69.0001 40.9254 69.0001 40.7732C69.0001 35.4752 69.0001 30.1918 69.0001 24.9011Z" fill="#1F51FF"/>
<path d="M85.1479 12.3277C84.4281 12.2118 83.7082 12.0378 82.9812 12.0016C82.4431 11.9726 82.0287 11.7769 81.6143 11.4435C82.8285 11.4001 84.0064 10.9072 85.2715 11.1536C84.1518 10.2622 82.8285 9.70414 81.6361 8.88517C81.9487 8.55178 82.3413 8.45031 82.763 8.41408C83.89 8.31986 84.9661 8.55178 86.0494 8.83443C88.078 9.378 90.0484 9.24754 91.9533 8.31261C93.0512 7.77629 94.1564 7.25447 95.2616 6.7254C95.3561 6.68192 95.4433 6.60944 95.5378 6.55146C95.5233 6.52247 95.516 6.48623 95.5015 6.45724C95.3634 6.47899 95.2107 6.47899 95.0943 6.53697C94.7453 6.71815 94.4109 6.66017 94.091 6.48623C92.6223 5.66001 91.1608 4.8193 89.6921 3.99308C88.6015 3.37704 87.4963 2.76825 86.4057 2.15946C86.2676 2.07973 86.144 1.97827 85.9186 1.82607C86.2748 1.65938 86.5511 1.49993 86.8492 1.39122C87.9617 0.985357 89.1032 0.738941 90.3029 0.767931C91.3862 0.796921 92.3969 1.10132 93.4075 1.42746C94.7381 1.85506 96.0541 2.34789 97.3992 2.71752C98.9915 3.15962 100.635 3.12338 102.278 3.0654C104.074 3.00017 105.782 2.52908 107.491 2.05074C109.287 1.55066 111.119 1.24627 112.995 1.25352C113.431 1.25352 113.882 1.33324 114.297 1.47094C114.922 1.68837 114.995 2.34789 114.515 2.81898C113.94 3.38429 113.213 3.62346 112.479 3.84813C109.214 4.87003 105.942 5.86295 102.678 6.8776C98.8461 8.0662 95.0144 9.26929 91.1826 10.4724C89.3577 11.0449 87.5327 11.6102 85.7077 12.19C85.6132 12.219 85.5187 12.277 85.4242 12.3205C85.3369 12.3277 85.2424 12.3277 85.1479 12.3277Z" fill="#1F51FF"/>
<path d="M98.7667 9.02765C100.65 8.2884 102.497 7.56365 104.445 6.79541C104.322 7.43319 104.22 7.96951 104.111 8.50583C104.089 8.61454 104.016 8.71601 103.987 8.82472C103.711 9.75965 103.064 10.3539 102.228 10.7816C101.937 10.9338 101.697 10.7743 101.471 10.6438C100.606 10.1583 99.7556 9.65819 98.9049 9.15811C98.8685 9.14361 98.8394 9.10737 98.7667 9.02765Z" fill="#1F51FF"/>
<path d="M120.767 30.3078H118.928V25.6476L116.848 29.0539H116.645L114.565 25.6476V30.3078H112.726V22.292H114.565L116.747 25.8578L118.928 22.292H120.767V30.3078Z" fill="#1F51FF"/>
<path d="M126.002 27.2276V30.3078H124.163V27.2276L121.458 22.292H123.552L125.079 25.3867L126.606 22.292H128.7L126.002 27.2276Z" fill="#1F51FF"/>
<path d="M118.121 33.6356H116.049V39.8902H114.209V33.6356H112.137V31.8672H118.114V33.6356H118.121Z" fill="#1F51FF"/>
<path d="M120.767 31.8672V39.8902H118.928V31.8672H120.767Z" fill="#1F51FF"/>
<path d="M121.806 35.8758C121.806 33.5131 123.566 31.7012 125.994 31.7012C127.455 31.7012 128.742 32.4259 129.44 33.5565L127.855 34.4697C127.499 33.8537 126.808 33.4841 125.994 33.4841C124.569 33.4841 123.646 34.4335 123.646 35.8685C123.646 37.3035 124.569 38.2529 125.994 38.2529C126.808 38.2529 127.514 37.8833 127.855 37.2673L129.44 38.1805C128.75 39.3183 127.463 40.0358 125.994 40.0358C123.558 40.0503 121.806 38.2384 121.806 35.8758Z" fill="#1F51FF"/>
<path d="M134.72 39.8902L132.147 36.1795V39.8902H130.307V31.8672H132.147V35.3532L134.604 31.8672H136.698L133.986 35.7736L136.814 39.8902H134.72Z" fill="#1F51FF"/>
<path d="M142.565 38.1218V39.883H137.504V31.8672H142.507V33.6283H139.344V34.9546H142.216V36.694H139.344V38.1146H142.565V38.1218Z" fill="#1F51FF"/>
<path d="M149 33.6356H146.927V39.8902H145.088V33.6356H143.016V31.8672H148.992V33.6356H149Z" fill="#1F51FF"/>
<path d="M116.027 18.951C116.027 20.2121 115.001 21.2267 113.743 21.2267C112.486 21.2267 111.46 20.2048 111.46 18.951C111.46 17.6972 112.486 16.6753 113.743 16.6753C115.001 16.6753 116.027 17.6972 116.027 18.951ZM115.772 18.951C115.772 17.8204 114.863 16.9 113.736 16.9C112.609 16.9 111.7 17.8204 111.7 18.951C111.7 20.0816 112.609 21.0021 113.736 21.0021C114.863 21.0093 115.772 20.0889 115.772 18.951ZM114.42 19.2699L114.9 20.1179H114.071L113.765 19.4728H113.591V20.1179H112.82V17.7914H113.831C114.296 17.7914 114.74 18.0886 114.74 18.5741C114.74 18.8713 114.616 19.1105 114.42 19.2699ZM113.591 18.8496H113.751C113.882 18.8496 113.969 18.7771 113.969 18.6684C113.969 18.5307 113.882 18.4872 113.751 18.4872H113.591V18.8496Z" fill="#1F51FF"/>
<path d="M109.657 27.1145C108.072 17.4753 98.8237 12.0396 89.219 15.2865C82.0863 17.6927 78.1383 25.1432 79.6797 32.8183C79.7597 33.2169 79.8687 33.6083 79.9632 33.9996C80.0505 34.0141 80.1377 34.0286 80.2177 34.0431C80.3268 33.8329 80.4867 33.63 80.5449 33.4053C80.8067 32.4052 81.0393 31.3978 81.2793 30.3904C81.6719 28.7089 82.7989 28.2161 84.3112 29.0786C85.1401 29.5496 85.4745 30.2672 85.2055 31.4268C84.6675 33.7822 84.064 36.1232 82.7043 38.1742C82.3844 38.6598 82.4571 38.9787 82.8134 39.399C86.6378 43.8128 91.5093 45.4072 97.1805 44.523C105.68 43.204 111.053 35.5651 109.657 27.1145ZM94.5558 35.8767C91.2694 35.8767 88.601 32.9995 88.601 29.4482C88.601 25.8969 91.2694 23.0196 94.5558 23.0196C97.8422 23.0196 100.511 25.8969 100.511 29.4482C100.511 32.9995 97.8422 35.8767 94.5558 35.8767Z" fill="#1F51FF"/>
</svg>
